<mxfile host="app.diagrams.net" agent="Mozilla/5.0 (Windows NT 10.0; Win64; x64) AppleWebKit/537.36 (KHTML, like Gecko) Chrome/130.0.0.0 Safari/537.36" version="24.8.4">
  <diagram name="Page-1" id="1wp_3Qv0Npw4YFb5__4A">
    <mxGraphModel dx="663" dy="345" grid="1" gridSize="10" guides="1" tooltips="1" connect="1" arrows="1" fold="1" page="1" pageScale="1" pageWidth="1100" pageHeight="850" math="0" shadow="0">
      <root>
        <mxCell id="0" />
        <mxCell id="1" parent="0" />
        <mxCell id="HwwphGhy5XaLdRf2e_HV-10" style="rounded=0;orthogonalLoop=1;jettySize=auto;html=1;exitX=1;exitY=0.25;exitDx=0;exitDy=0;entryX=0;entryY=0.25;entryDx=0;entryDy=0;" edge="1" parent="1" source="HwwphGhy5XaLdRf2e_HV-1" target="HwwphGhy5XaLdRf2e_HV-6">
          <mxGeometry relative="1" as="geometry" />
        </mxCell>
        <mxCell id="HwwphGhy5XaLdRf2e_HV-11" value="Content" style="edgeLabel;html=1;align=center;verticalAlign=middle;resizable=0;points=[];" vertex="1" connectable="0" parent="HwwphGhy5XaLdRf2e_HV-10">
          <mxGeometry x="-0.1038" y="1" relative="1" as="geometry">
            <mxPoint as="offset" />
          </mxGeometry>
        </mxCell>
        <mxCell id="HwwphGhy5XaLdRf2e_HV-1" value="0" style="swimlane;fontStyle=0;childLayout=stackLayout;horizontal=1;startSize=30;horizontalStack=0;resizeParent=1;resizeParentMax=0;resizeLast=0;collapsible=0;marginBottom=0;whiteSpace=wrap;html=1;container=1;rounded=1;" vertex="1" parent="1">
          <mxGeometry x="320" y="250" width="120" height="60" as="geometry" />
        </mxCell>
        <mxCell id="HwwphGhy5XaLdRf2e_HV-2" value="IntelliGen System" style="text;strokeColor=none;fillColor=none;align=center;verticalAlign=middle;spacingLeft=4;spacingRight=4;overflow=hidden;points=[[0,0.5],[1,0.5]];portConstraint=eastwest;rotatable=0;whiteSpace=wrap;html=1;" vertex="1" parent="HwwphGhy5XaLdRf2e_HV-1">
          <mxGeometry y="30" width="120" height="30" as="geometry" />
        </mxCell>
        <mxCell id="HwwphGhy5XaLdRf2e_HV-7" style="rounded=0;orthogonalLoop=1;jettySize=auto;html=1;entryX=0;entryY=0.25;entryDx=0;entryDy=0;exitX=1;exitY=0.25;exitDx=0;exitDy=0;" edge="1" parent="1" source="HwwphGhy5XaLdRf2e_HV-5" target="HwwphGhy5XaLdRf2e_HV-1">
          <mxGeometry relative="1" as="geometry" />
        </mxCell>
        <mxCell id="HwwphGhy5XaLdRf2e_HV-5" value="&lt;div&gt;IntelliGen&amp;nbsp;&lt;/div&gt;&lt;div&gt;User&lt;/div&gt;" style="whiteSpace=wrap;html=1;aspect=fixed;rounded=1;" vertex="1" parent="1">
          <mxGeometry x="170" y="240" width="80" height="80" as="geometry" />
        </mxCell>
        <mxCell id="HwwphGhy5XaLdRf2e_HV-9" style="rounded=0;orthogonalLoop=1;jettySize=auto;html=1;exitX=0;exitY=0.75;exitDx=0;exitDy=0;entryX=1;entryY=0.5;entryDx=0;entryDy=0;" edge="1" parent="1" source="HwwphGhy5XaLdRf2e_HV-6" target="HwwphGhy5XaLdRf2e_HV-2">
          <mxGeometry relative="1" as="geometry" />
        </mxCell>
        <mxCell id="HwwphGhy5XaLdRf2e_HV-13" value="Interactions" style="edgeLabel;html=1;align=center;verticalAlign=middle;resizable=0;points=[];" vertex="1" connectable="0" parent="HwwphGhy5XaLdRf2e_HV-9">
          <mxGeometry x="0.0275" y="-1" relative="1" as="geometry">
            <mxPoint x="2" as="offset" />
          </mxGeometry>
        </mxCell>
        <mxCell id="HwwphGhy5XaLdRf2e_HV-6" value="&lt;div&gt;Media Consumer&lt;br&gt;&lt;/div&gt;" style="whiteSpace=wrap;html=1;aspect=fixed;rounded=1;" vertex="1" parent="1">
          <mxGeometry x="530" y="240" width="80" height="80" as="geometry" />
        </mxCell>
        <mxCell id="HwwphGhy5XaLdRf2e_HV-8" style="rounded=0;orthogonalLoop=1;jettySize=auto;html=1;entryX=1;entryY=0.75;entryDx=0;entryDy=0;" edge="1" parent="1" source="HwwphGhy5XaLdRf2e_HV-2" target="HwwphGhy5XaLdRf2e_HV-5">
          <mxGeometry relative="1" as="geometry" />
        </mxCell>
      </root>
    </mxGraphModel>
  </diagram>
</mxfile>
